<?xml version="1.0" encoding="UTF-8" standalone="no"?>
<svg width="86px" height="22px" viewBox="0 0 86 22" version="1.1" xmlns="http://www.w3.org/2000/svg" xmlns:xlink="http://www.w3.org/1999/xlink" xmlns:sketch="http://www.bohemiancoding.com/sketch/ns">
    <!-- Generator: Sketch 3.3.1 (12002) - http://www.bohemiancoding.com/sketch -->
    <title>viease copy 6 + 微易@2x</title>
    <desc>Created with Sketch.</desc>
    <defs></defs>
    <g id="Page-1" stroke="none" stroke-width="1" fill="none" fill-rule="evenodd" sketch:type="MSPage">
        <g id="viease-copy-6-+-微易" sketch:type="MSLayerGroup" transform="translate(0.000000, -12.000000)">
            <g id="viease-copy-6" transform="translate(0.000000, 12.000000)" sketch:type="MSShapeGroup">
                <g id="Group">
                    <path d="M12.8766579,17.9822133 C16.2374474,17.9948267 17.8512632,16.4738933 17.8133421,13.8130667 C17.7731053,11.0366667 16.3428158,8.96485333 14.3851053,7.18813333 C14.0119737,6.84962667 13.7335,7.01389333 13.4376579,7.31954667 C12.6977632,8.08368 11.9361579,8.82904 11.1887368,9.5876 C9.84905263,10.9486667 8.50328947,12.3038667 7.19081579,13.6907467 C7.05215789,13.838 6.99918421,14.2821067 7.11034211,14.4246667 C8.73805263,16.5090933 10.7962105,17.8326133 12.8766579,17.9822133 L12.8766579,17.9822133 Z M0.186710526,7.26968 C0.921394737,7.87776 0.836578947,7.86984 0.759,8.74866667 C0.644078947,10.0472533 0.482263158,11.3833867 0.6545,12.6593867 C1.39642105,18.1453067 6.12497368,22.0302133 11.6753421,21.8377867 C16.9153947,21.6544533 21.4028158,17.2192533 21.7849211,11.8453867 C22.3624211,3.74821333 14.1784211,-2.10232 6.86081579,1.17802667 C4.92394737,2.04658667 4.30418421,3.90456 5.37292105,5.74346667 C5.49942105,5.962 5.82594737,6.06056 6.06013158,6.21456 C6.07344737,5.91448 6.19821053,5.55896 6.083,5.32458667 C5.29910526,3.71213333 5.65486842,2.67168 7.28865789,1.97061333 C11.0972632,0.3344 15.2040263,1.18712 18.1798158,4.23074667 C22.2492368,8.3952 21.6613158,15.5625067 16.9686579,18.9742667 C11.2770263,23.11496 3.57442105,20.37376 1.71628947,13.53 C1.24473684,11.7931733 1.31623684,10.04696 1.80023684,8.2808 C2.14326316,8.33389333 2.39742105,8.37349333 2.78560526,8.4348 C2.88460526,7.07168 2.98186842,5.75138667 3.07797368,4.42874667 C3.00068421,4.40498667 2.92368421,4.38005333 2.84668421,4.35629333 C1.97276316,5.31314667 1.09826316,6.27 0.186710526,7.26968 L0.186710526,7.26968 Z M13.2411053,6.33776 C11.9593158,5.54957333 10.5979211,4.97904 9.07210526,5.09696 C8.35536842,5.1524 7.64702632,5.43664 6.96097368,5.69008 C6.82521053,5.74112 6.67757895,6.24829333 6.75805263,6.33541333 C7.81347368,7.49144 8.90971053,8.61021333 10.0152105,9.75832 C11.1314211,8.57384 12.1454474,7.49936 13.2411053,6.33776 L13.2411053,6.33776 Z M6.48971053,13.4144267 C7.45742105,12.4294133 8.39705263,11.4904533 9.306,10.5227467 C9.405,10.4186133 9.42063158,10.06632 9.32944737,9.97128 C8.25115789,8.83666667 7.14507895,7.72816 6.04594737,6.61290667 C4.63678947,8.10861333 4.84839474,11.5045333 6.48971053,13.4144267 L6.48971053,13.4144267 Z" id="Shape" fill="#FFFFFF"></path>
                    <path d="M12.8766579,17.9822133 C10.7959211,17.8326133 8.73776316,16.5093867 7.11034211,14.4246667 C6.99918421,14.2821067 7.05215789,13.838 7.19081579,13.6907467 C8.50328947,12.3035733 9.84905263,10.9483733 11.1887368,9.5876 C11.9361579,8.82904 12.6977632,8.08397333 13.4376579,7.31954667 C13.7335,7.01389333 14.0119737,6.84962667 14.3851053,7.18813333 C16.3428158,8.96485333 17.7731053,11.0366667 17.8133421,13.8130667 C17.8512632,16.4738933 16.2377368,17.9948267 12.8766579,17.9822133 L12.8766579,17.9822133 Z" id="Shape" fill="#44B549"></path>
                    <path d="M2.84668421,4.35629333 C2.92397368,4.38005333 3.00097368,4.40498667 3.07797368,4.42874667 C2.98186842,5.75109333 2.88460526,7.07138667 2.78560526,8.4348 C2.39742105,8.37378667 2.14326316,8.33389333 1.80023684,8.2808 C1.31652632,10.04696 1.24502632,11.7931733 1.71628947,13.53 C3.57442105,20.3734667 11.2770263,23.11496 16.9686579,18.9742667 C21.6613158,15.5625067 22.2492368,8.3952 18.1798158,4.23045333 C15.2040263,1.18712 11.0972632,0.3344 7.28865789,1.97061333 C5.65486842,2.67168 5.29910526,3.71213333 6.083,5.32458667 C6.19792105,5.55896 6.07344737,5.91448 6.06013158,6.21456 C5.82594737,6.06056 5.49913158,5.962 5.37292105,5.74346667 C4.30418421,3.90456 4.92365789,2.04658667 6.86081579,1.17802667 C14.1787105,-2.10232 22.3624211,3.74850667 21.7846316,11.8450933 C21.4025263,17.21896 16.9151053,21.65416 11.6750526,21.8374933 C6.12497368,22.02992 1.39613158,18.1450133 0.654210526,12.6590933 C0.481973684,11.3830933 0.6435,10.04696 0.758710526,8.74837333 C0.836289474,7.86984 0.921394737,7.87746667 0.186710526,7.26968 C1.09855263,6.27 1.97276316,5.31314667 2.84668421,4.35629333 Z" id="Shape" fill="#44B549"></path>
                    <path d="M10.0149211,9.75832 C8.90942105,8.61021333 7.81318421,7.49144 6.75776316,6.33541333 C6.67728947,6.24829333 6.82463158,5.74112 6.96068421,5.69008 C7.64673684,5.43634667 8.35507895,5.1524 9.07181579,5.09696 C10.5979211,4.97904 11.9593158,5.54957333 13.2411053,6.33776 C12.1454474,7.49936 11.1314211,8.57413333 10.0149211,9.75832 Z" id="Shape" fill="#27A8E0"></path>
                    <path d="M6.04594737,6.61261333 C7.14478947,7.72786667 8.25115789,8.83637333 9.32944737,9.97098667 C9.42034211,10.0660267 9.405,10.4180267 9.306,10.5224533 C8.39705263,11.4907467 7.45742105,12.4294133 6.48971053,13.4144267 C4.84839474,11.50424 4.6365,8.10861333 6.04594737,6.61261333 Z" id="Shape" fill="#44B549"></path>
                </g>
            </g>
            <text id="微易" sketch:type="MSTextLayer" font-family="Libian SC" font-size="30" font-weight="normal" fill="#44B549">
                <tspan x="28" y="32">微易</tspan>
            </text>
        </g>
    </g>
</svg>